<svg width="200" height="200" viewBox="0 0 200 200" fill="none" xmlns="http://www.w3.org/2000/svg">
<path d="M100 144.517C123.613 144.517 142.755 125.878 142.755 102.887C142.755 79.8951 123.613 61.2567 100 61.2567C76.3872 61.2567 57.2451 79.8951 57.2451 102.887C57.2451 125.878 76.3872 144.517 100 144.517Z" stroke="#2B5DD7" stroke-width="4" stroke-linecap="round" stroke-linejoin="round"/>
<path d="M165 44C173.837 44 181 36.8366 181 28C181 19.1634 173.837 12 165 12C156.163 12 149 19.1634 149 28C149 36.8366 156.163 44 165 44Z" fill="#E8F0FF" stroke="#2B5DD7" stroke-width="4" stroke-linecap="round" stroke-linejoin="round"/>
<path d="M182 124C190.837 124 198 116.837 198 108C198 99.1634 190.837 92 182 92C173.163 92 166 99.1634 166 108C166 116.837 173.163 124 182 124Z" fill="#E8F0FF" stroke="#2B5DD7" stroke-width="4" stroke-linecap="round" stroke-linejoin="round"/>
<path d="M168 195C176.837 195 184 187.837 184 179C184 170.163 176.837 163 168 163C159.163 163 152 170.163 152 179C152 187.837 159.163 195 168 195Z" fill="#E8F0FF" stroke="#2B5DD7" stroke-width="4" stroke-linecap="round" stroke-linejoin="round"/>
<path d="M63 194C71.8366 194 79 186.837 79 178C79 169.163 71.8366 162 63 162C54.1634 162 47 169.163 47 178C47 186.837 54.1634 194 63 194Z" fill="#E8F0FF" stroke="#2B5DD7" stroke-width="4" stroke-linecap="round" stroke-linejoin="round"/>
<path d="M18 97C26.8366 97 34 89.8366 34 81C34 72.1634 26.8366 65 18 65C9.16344 65 2 72.1634 2 81C2 89.8366 9.16344 97 18 97Z" fill="#E8F0FF" stroke="#2B5DD7" stroke-width="4" stroke-linecap="round" stroke-linejoin="round"/>
<path d="M64 36C72.8366 36 80 28.8366 80 20C80 11.1634 72.8366 4 64 4C55.1634 4 48 11.1634 48 20C48 28.8366 55.1634 36 64 36Z" fill="#E8F0FF" stroke="#2B5DD7" stroke-width="4" stroke-linecap="round" stroke-linejoin="round"/>
<path d="M81.9979 63.507L70.7466 36.5038" stroke="#2B5DD7" stroke-width="2" stroke-linecap="round" stroke-linejoin="round"/>
<path d="M154.006 41.0042L129.253 70.2576" stroke="#2B5DD7" stroke-width="2" stroke-linecap="round" stroke-linejoin="round"/>
<path d="M35 86L58 93" stroke="#2B5DD7" stroke-width="2" stroke-linecap="round" stroke-linejoin="round"/>
<path d="M70.7466 162.519L81.9998 141" stroke="#2B5DD7" stroke-width="2" stroke-linecap="round" stroke-linejoin="round"/>
<path d="M129.253 133.265L158.507 167.019" stroke="#2B5DD7" stroke-width="2" stroke-linecap="round" stroke-linejoin="round"/>
<path d="M165.258 106.262L142.755 104.012" stroke="#2B5DD7" stroke-width="2" stroke-linecap="round" stroke-linejoin="round"/>
<path d="M119.088 101.065V105.248L123.92 109.327L124.55 109.85L122.344 115.078L115.097 114.765L112.156 117.693L112.681 123.967L112.786 124.804L107.534 127L102.703 121.667H98.5017L94.4054 126.477L93.8802 127.104L88.6286 124.908L88.9437 117.693L86.0028 114.765L79.7008 115.287L78.8605 115.392L76.6548 110.163L82.0115 105.353V101.17L77.18 96.9868L76.5498 96.4639L78.7555 91.2352L86.0028 91.5489L88.9437 88.6208L88.4185 82.3463L88.3135 81.3005L93.5651 79.1044L98.5017 84.6469H102.703L106.799 79.8365L107.324 79.209L112.576 81.4051L112.261 88.6208L115.202 91.5489L121.504 91.026L122.344 90.9215L124.55 96.1502L119.088 101.065ZM97.4513 95.941C93.3551 97.6142 91.4645 102.216 93.145 106.189C94.8255 110.268 99.447 112.15 103.438 110.477C107.429 108.804 109.425 104.202 107.745 100.229C106.169 96.1502 101.548 94.2678 97.4513 95.941Z" fill="#E8F0FF" stroke="#2B5DD7" stroke-width="2" stroke-linecap="round" stroke-linejoin="round"/>
</svg>
