<svg width="200" height="200" viewBox="0 0 200 200" fill="none" xmlns="http://www.w3.org/2000/svg">
<path d="M194 123.5C194 134.242 184.298 144.625 167.057 152.437C149.998 160.167 126.292 165 100 165C73.7079 165 50.0015 160.167 32.9432 152.437C15.7021 144.625 6 134.242 6 123.5C6 112.758 15.7021 102.375 32.9432 94.5626C50.0015 86.833 73.7079 82 100 82C126.292 82 149.998 86.833 167.057 94.5626C184.298 102.375 194 112.758 194 123.5Z" fill="white" stroke="#175DDC" stroke-width="4"/>
<path d="M183 122C183 126.335 180.833 130.563 176.707 134.512C172.579 138.463 166.552 142.067 159.022 145.115C143.967 151.208 123.1 155 100 155C76.8999 155 56.0331 151.208 40.9782 145.115C33.4482 142.067 27.4211 138.463 23.2925 134.512C19.1665 130.563 17 126.335 17 122C17 117.665 19.1665 113.437 23.2925 109.488C27.4211 105.537 33.4482 101.933 40.9782 98.8853C56.0331 92.7917 76.8999 89 100 89C123.1 89 143.967 92.7917 159.022 98.8853C166.552 101.933 172.579 105.537 176.707 109.488C180.833 113.437 183 117.665 183 122Z" fill="#E8F0FF" stroke="#175DDC" stroke-width="2"/>
<path d="M146.166 53.028C146.166 63.5369 137.647 72.056 127.138 72.056C116.629 72.056 108.11 63.5369 108.11 53.028C108.11 42.5191 116.629 34 127.138 34C137.647 34 146.166 42.5191 146.166 53.028Z" fill="white" stroke="#175DDC" stroke-width="4"/>
<path d="M157.408 105H157.264H157.12H156.977H156.834H156.691H156.548H156.405H156.263H156.121H155.98H155.839H155.698H155.557H155.416H155.276H155.136H154.996H154.857H154.718H154.579H154.44H154.302H154.164H154.026H153.888H153.751H153.614H153.477H153.341H153.204H153.068H152.933H152.797H152.662H152.527H152.392H152.257H152.123H151.989H151.855H151.721H151.588H151.455H151.322H151.189H151.057H150.925H150.793H150.661H150.53H150.398H150.267H150.136H150.006H149.875H149.745H149.615H149.486H149.356H149.227H149.098H148.969H148.84H148.712H148.584H148.456H148.328H148.201H148.073H147.946H147.819H147.692H147.566H147.44H147.313H147.188H147.062H146.936H146.811H146.686H146.561H146.436H146.312H146.187H146.063H145.939H145.815H145.692H145.568H145.445H145.322H145.199H145.076H144.954H144.831H144.709H144.587H144.465H144.344H144.222H144.101H143.98H143.859H143.738H143.618H143.497H143.377H143.257H143.137H143.017H142.897H142.778H142.658H142.539H142.42H142.301H142.183H142.064H141.946H141.828H141.709H141.591H141.474H141.356H141.238H141.121H141.004H140.887H140.77H140.653H140.536H140.42H140.303H140.187H140.071H139.955H139.839H139.723H139.608H139.492H139.377H139.261H139.146H139.031H138.916H138.802H138.687H138.572H138.458H138.344H138.23H138.116H138.002H137.888H137.774H137.66H137.547H137.433H137.32H137.207H137.094H136.981H136.868H136.755H136.642H136.53H136.417H136.305H136.193H136.08H135.968H135.856H135.744H135.632H135.521H135.409H135.297H135.186H135.074H134.963H134.852H134.74H134.629H134.518H134.407H134.296H134.185H134.075H133.964H133.853H133.743H133.632H133.522H133.412H133.301H133.191H133.081H132.971H132.861H132.751H132.641H132.531H132.421H132.311H132.202H132.092H131.982H131.873H131.763H131.654H131.544H131.435H131.326H131.216H131.107H130.998H130.889H130.78H130.671H130.562H130.453H130.344H130.235H130.126H130.017H129.908H129.799H129.69H129.581H129.473H129.364H129.255H129.146H129.038H128.929H128.82H128.712H128.603H128.495H128.386H128.277H128.169H128.06H127.952H127.843H127.735H127.626H127.518H127.409H127.3H127.192H127.083H126.975H126.866H126.758H126.649H126.541H126.432H126.324H126.215H126.106H125.998H125.889H125.78H125.672H125.563H125.454H125.346H125.237H125.128H125.019H124.911H124.802H124.693H124.584H124.475H124.366H124.257H124.148H124.039H123.93H123.821H123.712H123.603H123.494H123.384H123.275H123.166H123.056H122.947H122.837H122.728H122.618H122.509H122.399H122.289H122.179H122.07H121.96H121.85H121.74H121.63H121.52H121.409H121.299H121.189H121.079H120.968H120.858H120.747H120.636H120.526H120.415H120.304H120.193H120.082H119.971H119.86H119.749H119.637H119.526H119.415H119.303H119.191H119.08H118.968H118.856H118.744H118.632H118.52H118.408H118.295H118.183H118.07H117.958H117.845H117.732H117.619H117.506H117.393H117.28H117.167H117.053H116.94H116.826H116.712H116.598H116.484H116.37H116.256H116.142H116.027H115.913H115.798H115.683H115.568H115.453H115.338H115.223H115.107H114.992H114.876H114.76H114.645H114.529H114.412H114.296H114.18H114.063H113.946H113.829H113.712H113.595H113.478H113.361H113.243H113.125H113.008H112.89H112.771H112.653H112.535H112.416H112.297H112.178H112.059H111.94H111.821H111.701H111.582H111.462H111.342H111.222H111.101H110.981H110.86H110.739H110.618H110.497H110.376H110.254H110.133H110.011H109.889H109.767H109.644H109.522H109.399H109.276H109.153H109.03H108.906H108.783H108.659H108.535H108.411H108.286H108.162H108.037H107.912H107.787H107.661H107.536H107.41H107.284H107.158H107.031H106.905H106.778H106.651H106.524H106.396H106.269H106.141H106.013H105.885H105.756H105.628H105.499H105.37H105.24H105.111H104.981H104.851H104.721H104.591H104.46H104.329H104.198H104.067H103.935H103.803H103.671H103.539H103.407H103.274H103.141H103.008H102.874H102.741H102.607H102.473H102.338H102.204H102.069H101.934H101.798H101.663H101.527H101.391H101.255H101.118H100.981H100.844H100.707H100.569H100.431H100.293H100.154H100.016H99.8769H99.7377H99.5982H99.4584H99.3184H99.1782H99.0376H98.8968H98.7557H98.6144H98.4727H98.3308H98.1886H98.0462H97.9034H97.7604H97.6171H97.4735H97.3296H97.1855H97.041H96.8963H96.7513H96.606H96.4604H96.3145H96.1683H96.0218H95.8751H95.728H95.5806H95.433C94.7778 105 94.3264 104.702 93.9841 104.108C93.6011 103.445 93.4461 102.513 93.5742 101.706C96.1289 85.5921 110.175 73.2523 127.133 73.2523C144.091 73.2523 158.137 85.5921 160.691 101.706C160.911 103.089 160.59 103.792 160.236 104.163C159.842 104.576 159.008 105 157.408 105Z" fill="white" stroke="#175DDC" stroke-width="4"/>
<path d="M91.6356 53.028C91.6356 63.5369 83.1165 72.056 72.6076 72.056C62.0987 72.056 53.5796 63.5369 53.5796 53.028C53.5796 42.5191 62.0987 34 72.6076 34C83.1165 34 91.6356 42.5191 91.6356 53.028Z" fill="white" stroke="#175DDC" stroke-width="4"/>
<path d="M102.878 105H102.734H102.59H102.446H102.303H102.16H102.018H101.875H101.733H101.591H101.45H101.308H101.167H101.027H100.886H100.746H100.606H100.466H100.327H100.188H100.049H99.9101H99.7717H99.6336H99.4958H99.3582H99.2209H99.0838H98.947H98.8105H98.6741H98.5381H98.4023H98.2667H98.1314H97.9963H97.8615H97.727H97.5926H97.4585H97.3247H97.1911H97.0577H96.9246H96.7917H96.659H96.5266H96.3944H96.2625H96.1308H95.9993H95.868H95.737H95.6061H95.4756H95.3452H95.215H95.0851H94.9554H94.8259H94.6967H94.5676H94.4388H94.3102H94.1818H94.0536H93.9256H93.7979H93.6703H93.543H93.4158H93.2889H93.1622H93.0356H92.9093H92.7832H92.6573H92.5315H92.406H92.2807H92.1555H92.0306H91.9058H91.7813H91.6569H91.5327H91.4088H91.285H91.1613H91.0379H90.9147H90.7916H90.6687H90.546H90.4235H90.3012H90.179H90.057H89.9352H89.8136H89.6921H89.5708H89.4497H89.3287H89.2079H89.0873H88.9669H88.8466H88.7264H88.6065H88.4867H88.367H88.2475H88.1282H88.009H87.89H87.7712H87.6525H87.5339H87.4155H87.2972H87.1791H87.0612H86.9434H86.8257H86.7082H86.5908H86.4735H86.3564H86.2395H86.1227H86.006H85.8894H85.773H85.6567H85.5406H85.4246H85.3087H85.1929H85.0773H84.9618H84.8464H84.7312H84.616H84.501H84.3861H84.2714H84.1567H84.0422H83.9278H83.8135H83.6993H83.5852H83.4713H83.3574H83.2437H83.1301H83.0166H82.9031H82.7898H82.6766H82.5635H82.4505H82.3376H82.2248H82.1121H81.9995H81.887H81.7746H81.6623H81.55H81.4379H81.3258H81.2139H81.102H80.9902H80.8785H80.7669H80.6554H80.5439H80.4326H80.3213H80.2101H80.099H79.9879H79.8769H79.766H79.6552H79.5444H79.4337H79.3231H79.2126H79.1021H78.9917H78.8813H78.771H78.6608H78.5506H78.4405H78.3305H78.2205H78.1106H78.0007H77.8909H77.7811H77.6714H77.5617H77.4521H77.3426H77.2331H77.1236H77.0142H76.9048H76.7955H76.6862H76.5769H76.4677H76.3586H76.2494H76.1403H76.0313H75.9222H75.8132H75.7043H75.5953H75.4864H75.3776H75.2687H75.1599H75.0511H74.9423H74.8336H74.7249H74.6162H74.5075H74.3988H74.2901H74.1815H74.0729H73.9643H73.8557H73.7471H73.6385H73.53H73.4214H73.3129H73.2043H73.0958H72.9872H72.8787H72.7702H72.6616H72.5531H72.4446H72.336H72.2275H72.1189H72.0104H71.9018H71.7932H71.6846H71.576H71.4674H71.3588H71.2502H71.1415H71.0328H70.9242H70.8154H70.7067H70.598H70.4892H70.3804H70.2716H70.1627H70.0538H69.9449H69.836H69.727H69.618H69.509H69.3999H69.2908H69.1817H69.0725H68.9633H68.854H68.7447H68.6354H68.526H68.4166H68.3071H68.1976H68.088H67.9784H67.8687H67.759H67.6492H67.5394H67.4295H67.3196H67.2096H67.0995H66.9894H66.8792H66.769H66.6587H66.5483H66.4379H66.3274H66.2168H66.1062H65.9955H65.8847H65.7739H65.6629H65.5519H65.4409H65.3297H65.2185H65.1072H64.9958H64.8844H64.7728H64.6612H64.5495H64.4377H64.3258H64.2138H64.1017H63.9896H63.8773H63.765H63.6526H63.54H63.4274H63.3147H63.2019H63.0889H62.9759H62.8628H62.7496H62.6362H62.5228H62.4093H62.2956H62.1818H62.068H61.954H61.8399H61.7257H61.6114H61.4969H61.3824H61.2677H61.1529H61.038H60.923H60.8078H60.6926H60.5772H60.4616H60.346H60.2302H60.1143H59.9982H59.8821H59.7658H59.6493H59.5327H59.416H59.2992H59.1822H59.0651H58.9478H58.8304H58.7128H58.5951H58.4773H58.3593H58.2412H58.1229H58.0044H57.8859H57.7671H57.6482H57.5292H57.41H57.2906H57.1711H57.0514H56.9316H56.8116H56.6914H56.5711H56.4506H56.33H56.2091H56.0881H55.967H55.8457H55.7242H55.6025H55.4806H55.3586H55.2364H55.114H54.9915H54.8687H54.7458H54.6227H54.4994H54.376H54.2523H54.1285H54.0045H53.8803H53.7558H53.6313H53.5065H53.3815H53.2563H53.1309H53.0054H52.8796H52.7536H52.6275H52.5011H52.3745H52.2478H52.1208H51.9936H51.8662H51.7386H51.6108H51.4828H51.3546H51.2261H51.0975H50.9686H50.8395H50.7102H50.5807H50.4509H50.321H50.1908H50.0604H49.9297H49.7989H49.6678H49.5365H49.4049H49.2732H49.1412H49.0089H48.8765H48.7438H48.6108H48.4776H48.3442H48.2106H48.0767H47.9425H47.8082H47.6735H47.5387H47.4036H47.2682H47.1326H46.9967H46.8606H46.7243H46.5877H46.4508H46.3137H46.1763H46.0387H45.9008H45.7626H45.6242H45.4855H45.3466H45.2074H45.0679H44.9282H44.7882H44.6479H44.5074H44.3665H44.2255H44.0841H43.9425H43.8006H43.6584H43.5159H43.3732H43.2301H43.0868H42.9432H42.7994H42.6552H42.5108H42.366H42.221H42.0757H41.9301H41.7842H41.6381H41.4916H41.3448H41.1977H41.0504H40.9027C40.2475 105 39.7961 104.702 39.4539 104.108C39.0709 103.445 38.9158 102.513 39.0439 101.706C41.5986 85.5921 55.6443 73.2523 72.6025 73.2523C89.5608 73.2523 103.606 85.5921 106.161 101.706C106.38 103.089 106.06 103.792 105.706 104.163C105.312 104.576 104.478 105 102.878 105Z" fill="white" stroke="#175DDC" stroke-width="4"/>
<path d="M119.849 75.7792C119.849 86.772 110.938 95.6834 99.9452 95.6834C88.9524 95.6834 80.041 86.772 80.041 75.7792C80.041 64.7864 88.9524 55.875 99.9452 55.875C110.938 55.875 119.849 64.7864 119.849 75.7792Z" fill="white" stroke="#175DDC" stroke-width="4"/>
<path d="M131.477 130H131.327H131.177H131.027H130.878H130.729H130.581H130.432H130.284H130.136H129.989H129.842H129.695H129.548H129.402H129.256H129.11H128.965H128.819H128.674H128.53H128.385H128.241H128.097H127.954H127.81H127.667H127.525H127.382H127.24H127.098H126.956H126.815H126.674H126.533H126.392H126.251H126.111H125.971H125.832H125.692H125.553H125.414H125.275H125.137H124.999H124.861H124.723H124.586H124.449H124.312H124.175H124.038H123.902H123.766H123.63H123.495H123.359H123.224H123.089H122.955H122.82H122.686H122.552H122.418H122.285H122.152H122.018H121.886H121.753H121.62H121.488H121.356H121.224H121.093H120.961H120.83H120.699H120.569H120.438H120.308H120.178H120.048H119.918H119.788H119.659H119.53H119.401H119.272H119.143H119.015H118.887H118.759H118.631H118.503H118.376H118.249H118.122H117.995H117.868H117.742H117.615H117.489H117.363H117.237H117.112H116.986H116.861H116.736H116.611H116.486H116.361H116.237H116.113H115.988H115.864H115.741H115.617H115.493H115.37H115.247H115.124H115.001H114.878H114.756H114.633H114.511H114.389H114.267H114.145H114.023H113.902H113.78H113.659H113.538H113.417H113.296H113.176H113.055H112.935H112.814H112.694H112.574H112.454H112.334H112.215H112.095H111.976H111.856H111.737H111.618H111.499H111.38H111.262H111.143H111.025H110.906H110.788H110.67H110.552H110.434H110.316H110.198H110.081H109.963H109.846H109.728H109.611H109.494H109.377H109.26H109.143H109.027H108.91H108.794H108.677H108.561H108.445H108.328H108.212H108.096H107.98H107.865H107.749H107.633H107.517H107.402H107.286H107.171H107.056H106.941H106.825H106.71H106.595H106.48H106.365H106.251H106.136H106.021H105.907H105.792H105.678H105.563H105.449H105.334H105.22H105.106H104.992H104.878H104.763H104.649H104.535H104.422H104.308H104.194H104.08H103.966H103.852H103.739H103.625H103.512H103.398H103.284H103.171H103.057H102.944H102.831H102.717H102.604H102.491H102.377H102.264H102.151H102.037H101.924H101.811H101.698H101.585H101.472H101.358H101.245H101.132H101.019H100.906H100.793H100.68H100.567H100.454H100.341H100.228H100.115H100.002H99.8885H99.7754H99.6624H99.5493H99.4362H99.3231H99.2101H99.097H98.9838H98.8707H98.7576H98.6444H98.5313H98.4181H98.3049H98.1917H98.0784H97.9652H97.8519H97.7386H97.6252H97.5119H97.3985H97.2851H97.1716H97.0582H96.9446H96.8311H96.7175H96.6039H96.4903H96.3766H96.2628H96.1491H96.0353H95.9214H95.8075H95.6936H95.5796H95.4655H95.3515H95.2373H95.1231H95.0089H94.8946H94.7803H94.6659H94.5514H94.4369H94.3223H94.2076H94.0929H93.9782H93.8633H93.7485H93.6335H93.5185H93.4034H93.2882H93.1729H93.0576H92.9422H92.8268H92.7112H92.5956H92.4799H92.3641H92.2483H92.1323H92.0163H91.9002H91.784H91.6677H91.5514H91.4349H91.3184H91.2017H91.085H90.9681H90.8512H90.7342H90.6171H90.4999H90.3825H90.2651H90.1476H90.03H89.9122H89.7944H89.6765H89.5584H89.4402H89.322H89.2036H89.0851H88.9665H88.8477H88.7289H88.6099H88.4909H88.3717H88.2523H88.1329H88.0133H87.8936H87.7738H87.6538H87.5338H87.4135H87.2932H87.1727H87.0521H86.9314H86.8105H86.6895H86.5683H86.447H86.3256H86.204H86.0823H85.9605H85.8384H85.7163H85.594H85.4715H85.3489H85.2262H85.1033H84.9802H84.857H84.7336H84.6101H84.4864H84.3626H84.2386H84.1144H83.9901H83.8656H83.7409H83.6161H83.4911H83.3659H83.2406H83.1151H82.9894H82.8635H82.7375H82.6113H82.4849H82.3583H82.2316H82.1047H81.9776H81.8503H81.7228H81.5951H81.4673H81.3392H81.211H81.0826H80.954H80.8252H80.6962H80.567H80.4376H80.308H80.1782H80.0482H79.9181H79.7877H79.6571H79.5263H79.3953H79.264H79.1326H79.001H78.8692H78.7371H78.6048H78.4723H78.3396H78.2067H78.0736H77.9402H77.8067H77.6729H77.5389H77.4046H77.2702H77.1355H77.0005H76.8654H76.73H76.5944H76.4586H76.3225H76.1862H76.0496H75.9128H75.7758H75.6385H75.501H75.3633H75.2253H75.0871H74.9486H74.8099H74.6709H74.5317H74.3922H74.2525H74.1125H73.9723H73.8318H73.691H73.55H73.4088H73.2673H73.1255H72.9835H72.8411H72.6986H72.5557H72.4126H72.2693H72.1256H71.9817H71.8375H71.6931H71.5484H71.4034H71.2581H71.1125H70.9667H70.8206H70.6742H70.5275H70.3805H70.2333H70.0857H69.9379H69.7898H69.6414H69.4927H69.3437H69.1945H69.0449H68.895H68.7449H68.5944H68.4436H68.2926H68.1412H67.9895H67.8376H67.6853H67.5327H67.3798H67.2266H67.0731H66.9193C66.2019 130 65.7066 129.669 65.3379 129.03C64.9285 128.32 64.7647 127.331 64.9008 126.472C67.5683 109.647 82.2339 96.7628 99.94 96.7628C117.646 96.7628 132.312 109.647 134.979 126.472C135.21 127.93 134.874 128.692 134.483 129.103C134.051 129.555 133.156 130 131.477 130Z" fill="white" stroke="#175DDC" stroke-width="4"/>
</svg>
