<svg width="200" height="200" viewBox="0 0 200 200" fill="none" xmlns="http://www.w3.org/2000/svg">
<path d="M65.2726 167.765H33.3102C27.6184 167.765 23.0005 163.14 23.0005 157.44V19.0186C23.0005 13.3183 27.6184 8.69353 33.3102 8.69353H167.014C172.705 8.69353 177.323 13.3183 177.323 19.0186V157.44C177.323 163.14 172.705 167.765 167.014 167.765H102.124" stroke="#2B5DD7" stroke-width="4" stroke-linecap="round" stroke-linejoin="round"/>
<path d="M177.323 129.777C177.323 135.676 172.705 140.461 167.013 140.461H105.048H33.3097C27.6179 140.461 23 145.247 23 151.145" stroke="#2B5DD7" stroke-width="3" stroke-linecap="round" stroke-linejoin="round"/>
<path d="M56.2388 8.6934V139.274" stroke="#2B5DD7" stroke-width="4" stroke-linecap="round" stroke-linejoin="round"/>
<path d="M65.7349 153.519V191.506L83.9628 181.438L101.348 191.506V153.519" fill="#E8F0FF"/>
<path d="M65.7349 153.519V191.506L83.9628 181.438L101.348 191.506V153.519" stroke="#2B5DD7" stroke-width="2" stroke-linecap="round" stroke-linejoin="round"/>
<path d="M177.323 144.023C177.323 149.266 172.748 153.519 167.109 153.519H105.719H49.1167" stroke="#2B5DD7" stroke-width="2" stroke-linecap="round" stroke-linejoin="round"/>
<path d="M128.842 97.2089C128.842 97.2089 128.195 88.2617 132.076 80.1768C135.957 72.0919 143.503 60.9887 143.503 52.1492C143.503 38.1354 131.429 26.8165 116.553 26.8165C101.677 26.8165 89.6035 38.1354 89.6035 52.1492C89.6035 60.8809 97.2572 72.4153 101.03 80.1768C104.695 87.8305 104.264 97.2089 104.264 97.2089" fill="#E8F0FF"/>
<path d="M128.842 97.2089C128.842 97.2089 128.195 88.2617 132.076 80.1768C135.957 72.0919 143.503 60.9887 143.503 52.1492C143.503 38.1354 131.429 26.8165 116.553 26.8165C101.677 26.8165 89.6035 38.1354 89.6035 52.1492C89.6035 60.8809 97.2572 72.4153 101.03 80.1768C104.695 87.8305 104.264 97.2089 104.264 97.2089" stroke="#2B5DD7" stroke-width="4" stroke-linecap="round" stroke-linejoin="round"/>
<path d="M104.155 97.2089H128.841" stroke="#2B5DD7" stroke-width="4" stroke-linecap="round" stroke-linejoin="round"/>
<path d="M105.125 105.402H127.763" stroke="#2B5DD7" stroke-width="4" stroke-linecap="round" stroke-linejoin="round"/>
<path d="M106.419 113.81H126.578" stroke="#2B5DD7" stroke-width="4" stroke-linecap="round" stroke-linejoin="round"/>
<path d="M112.241 122.218H120.757" stroke="#2B5DD7" stroke-width="4" stroke-linecap="round" stroke-linejoin="round"/>
</svg>
